<svg width="103" height="103" viewBox="0 0 103 103" fill="none" xmlns="http://www.w3.org/2000/svg">
<rect width="103" height="103" fill="white"/>
<path d="M34.5864 96C37.7703 92.8085 40.3175 90.2553 42.2278 86.4255C43.5014 83.8723 44.775 80.6808 46.0486 78.1276C46.0486 77.4893 46.0486 77.4893 46.0486 76.851C46.0486 76.2127 46.0486 75.5744 45.4118 75.5744C44.775 75.5744 44.1382 75.5744 44.1382 75.5744C40.9543 77.4893 37.7703 78.7659 33.9495 78.7659C28.8552 78.7659 25.0345 76.851 21.8506 73.0212C17.393 67.9149 15.4826 61.5319 16.1194 55.1489C16.1194 48.1276 19.3034 42.383 23.761 37.2766C27.5817 32.8085 32.676 28.3404 36.4968 23.8724C42.2279 18.1277 46.6853 12.383 51.1429 6C51.7797 7.2766 53.0533 8.55318 53.6901 9.82978C56.874 14.9362 61.3315 19.4042 65.7891 23.234C69.6098 27.0638 74.0674 30.8936 77.2513 35.3617C82.3456 40.4681 85.5296 46.851 86.1663 53.8723C86.8031 58.9787 86.1664 63.4468 83.6192 68.5532C81.0721 74.2979 75.9777 77.4893 70.2466 78.7659C65.7891 79.4042 61.9684 78.7659 58.7844 76.2127C58.1476 76.2127 57.5108 75.5744 56.874 76.2127C56.2373 76.2127 56.2372 76.851 56.2372 77.4893C56.2372 78.1276 56.2372 78.7659 56.2372 78.7659C58.1476 85.1489 61.9683 90.8936 67.0626 96C56.874 96 46.0486 96 34.5864 96Z" fill="black"/>
</svg>
