<svg width="218" height="74" viewBox="0 0 218 74" fill="none" xmlns="http://www.w3.org/2000/svg">
<path d="M163.805 15.9799L160.005 33.7577C165.304 33.3293 169.319 26.3146 169.319 20.6386C169.319 16.676 167.392 13.4096 162.735 13.4096C154.117 13.4096 148.925 18.2825 148.925 26.3681C148.925 29.0991 149.62 29.5274 149.674 30.0094C145.981 30.0094 144 28.6707 144 24.8688C144 17.8005 153.796 11 162.681 11C171.406 11 175.26 15.9799 175.26 21.4953C175.26 28.2423 169.479 35.7925 159.898 35.7925H159.63L156.365 50.9465H148.71L155.937 17.0509L163.805 15.9799Z" fill="black"/>
<path d="M185.27 24.2798L181.416 42.4324C181.309 43.0214 181.202 43.6104 181.202 44.0924C181.202 45.2704 181.737 46.1272 183.878 46.1272C186.019 46.1272 188.803 43.1285 190.891 41.415H192.71C190.248 43.8782 184.253 50.9465 180.078 50.9465C175.956 50.9465 173.44 49.1258 173.44 45.1633C173.44 44.3601 173.547 43.4498 173.762 42.4324L177.616 24.3333H185.27V24.2798ZM182.808 13.0348C185.163 13.0348 187.09 14.9625 187.09 17.3186C187.09 19.6747 185.163 21.5489 182.808 21.5489C180.453 21.5489 178.579 19.6747 178.579 17.3186C178.633 14.909 180.453 13.0348 182.808 13.0348Z" fill="black"/>
<path d="M213.854 24.2798L203.255 31.5087C203.684 31.4551 204.058 31.4016 204.487 31.4016C207.431 31.4016 210.642 34.6145 210.642 38.095C210.642 38.4699 210.589 38.8983 210.482 39.3266L209.786 42.4324C209.625 43.1821 209.358 43.9853 209.358 44.6814C209.358 45.5917 209.786 46.2343 211.392 46.2343C211.766 46.2343 212.355 46.2343 212.783 46.0736C211.285 50.6787 209.036 51 207.27 51C203.47 51 201.864 48.4833 201.864 45.1633C201.864 44.3066 201.971 43.3962 202.185 42.4859L202.72 39.9692C202.774 39.5944 202.827 39.166 202.827 38.7376C202.827 37.0241 202.078 35.4177 200.418 35.4177C199.134 35.4177 198.17 35.7925 197.1 36.5422L193.995 50.9465H186.341L194.049 14.7483L201.917 13.6774L198.01 32.2584C201.971 29.0991 208.126 24.2798 208.126 24.3333H213.854V24.2798Z" fill="black"/>
<path d="M16.927 27.0419C20.2285 22.6383 28.823 11.2097 28.823 11.2621H34.2732L19.7569 27.9856C20.4381 27.8807 21.067 27.8807 21.6435 27.8807C26.6744 27.8807 28.0893 30.2923 28.0893 33.4377C28.0893 37.7366 25.5215 43.346 25.5215 46.6488C25.5215 48.2215 26.3075 49.637 27.5653 50.1088C25.3642 50.7379 23.6349 51 22.4295 51C19.0232 51 18.3419 49.2176 18.3419 47.4875C18.3419 44.0275 21.1194 37.7366 21.1194 33.7523C21.1194 31.6553 20.3333 30.2398 17.9751 30.2398C17.5034 30.2398 16.927 30.2923 16.2457 30.4495L12.0533 50.0564H4.61168L12.1581 14.6697C7.54639 16.557 4.8213 20.5413 4.8213 26.0459C4.8213 28.7195 5.50257 29.1389 5.55498 29.6107C1.99141 29.6107 0 28.3001 0 24.578C0 17.6055 9.5902 11 18.2895 11C19.0232 11 19.7045 11.0524 20.3857 11.1048L16.927 27.0419Z" fill="black"/>
<path d="M42.3436 24.0537L41.7671 26.675C43.6537 25.2071 45.75 24.0537 47.8986 24.0537C50.2568 24.0537 51.6718 25.4168 51.6718 27.4089C51.6718 29.2438 50.3092 31.498 47.7414 31.498C44.8067 31.498 46.274 28.038 44.7018 28.038C43.1297 28.038 42.2912 28.6147 41.0859 29.7156L36.7362 50.1612H29.347L34.8496 24.1062H42.3436V24.0537Z" fill="black"/>
<path d="M69.3325 31.1835C69.6469 31.498 70.1186 31.6553 70.8522 31.6553C73.3153 31.6553 74.4158 29.8729 76.3024 29.0865L76.512 30.1874C74.8875 32.232 72.1624 33.962 69.1753 34.7484C68.1796 45.2333 62.5198 50.3709 57.2792 50.3709C51.7243 50.3709 49.3136 48.0118 49.3136 41.8257C49.3136 28.9817 55.8119 23.4771 63.0438 23.4771C67.9699 23.5295 69.2277 27.3565 69.3325 31.1835ZM65.2973 35.2726C63.7775 35.2726 63.0962 34.1717 63.0962 32.9135C63.0962 31.3932 63.9871 29.768 65.4021 29.2438C65.2449 27.5138 64.6684 26.5177 63.201 26.5177C58.3273 26.5177 56.2311 37.1599 56.2311 41.3014C56.2311 44.4469 57.6985 45.2857 59.7423 45.2857C62.8866 45.3381 64.6684 40.3578 65.2973 35.2726ZM65.4021 11H70.8522L64.5636 20.8558H60.6332L65.4021 11Z" fill="black"/>
<path d="M79.4466 41.7733C79.2894 42.4024 79.1846 42.979 79.1846 43.5557C79.1846 44.6566 79.6039 45.4954 81.0712 45.4954C81.4381 45.4954 82.0145 45.4954 82.4338 45.3381C80.9664 49.8467 78.7654 50.1612 77.036 50.1612C73.3152 50.1612 71.743 47.6972 71.743 44.4469C71.743 43.6081 71.8479 42.7169 72.0575 41.8257L77.7697 14.6697L85.4733 13.6212L79.4466 41.7733Z" fill="black"/>
<path d="M154.936 55.4862C151.624 57.312 148.864 60.5815 146.911 63.8935C145.934 65.507 145.807 66.2713 145.34 66.2713C145.127 66.2713 145 65.9316 145 65.4221C145 65.04 145 64.4455 145.34 63.8086C147.633 58.968 149.883 54 152.006 54.3822C152.218 54.4246 152.346 54.5095 152.346 54.7218C152.346 55.4861 150.775 57.1846 150.095 58.2886C151.327 57.0148 153.959 54.4246 155.658 54.4246C156.422 54.4246 157.017 55.0191 157.017 56.2929C157.017 59.2652 155.318 59.9871 155.021 59.9871C154.426 59.9871 154.554 59.1378 154.681 58.8406C154.893 58.3735 155.785 57.0148 155.955 55.656C155.955 55.104 155.233 55.3163 154.936 55.4862Z" fill="black"/>
<path d="M163.725 61.176C163.343 61.176 163.216 61.5157 162.961 61.8978C162.834 62.1101 159.734 66.4836 156.38 66.4836C155.87 66.4836 154.936 66.3563 154.894 64.8701C154.681 60.072 160.329 54 163.683 54C165.381 54 165.424 55.6135 165.424 56.208C165.424 56.9723 165.212 58.416 164.065 60.2843C166.018 60.1569 167.547 59.0104 168.269 57.4818C168.354 57.2695 168.524 57.1421 168.651 57.1421C169.161 57.1421 169.118 57.7791 169.118 57.864C168.184 59.7747 166.103 61.176 163.725 61.176ZM162.494 61.0061C160.881 60.624 159.649 59.3926 159.649 57.6941C159.649 57.4818 159.649 57.2271 159.734 57.0572C158.163 58.7557 156.422 61.728 156.422 64.4455C156.422 65.4646 156.889 65.4221 156.932 65.4221C159.012 65.3372 161.645 62.0677 162.494 61.0061ZM163.98 56.9298C163.98 55.656 163.216 55.3588 162.749 55.3588C161.008 55.3588 160.498 57.1846 160.498 57.6941C160.498 58.7981 161.39 59.7747 162.961 60.1994C163.768 58.5434 163.98 57.4818 163.98 56.9298Z" fill="black"/>
<path d="M179.776 59.9021C178.332 62.1526 175.954 66.5686 172.515 66.5686C171.793 66.5686 171.284 66.1864 171.284 65.2098C171.284 63.2566 172.982 60.1569 173.619 59.0104C171.793 61.0061 167.802 66.5686 165.806 66.5686C165.721 66.5686 164.787 66.6959 164.787 65.4646C164.787 63.1292 168.609 54.4246 171.751 54.4246C172.005 54.4246 172.09 54.552 172.09 54.7643C172.09 55.104 171.878 55.4012 171.878 55.4861C168.396 60.072 165.551 64.6153 165.594 65.8892C165.849 65.8043 166.103 65.6769 166.443 65.4221C169.925 62.4498 172.6 58.3735 176.252 55.1465C176.761 54.6369 177.695 54.4246 178.12 54.4246C178.375 54.4246 178.46 54.6369 178.46 54.8068C178.46 55.0615 178.332 55.4012 178.247 55.4437C176.973 57.1846 172.218 63.2566 172.218 65.5495C172.218 65.6769 172.218 65.7618 172.303 65.8043C174.808 66.1439 177.143 62.5772 178.884 59.6474C178.502 59.3077 178.375 58.8831 178.375 58.3735C178.375 55.9108 181.729 54.552 183.555 54.552C183.895 54.552 184.149 54.6369 184.149 54.6794C183.895 54.6794 181.389 57.2695 180.2 59.1378C183.3 59.1378 185.763 55.9108 186.655 55.9108C186.74 55.9108 186.739 55.9957 186.739 56.0381C186.739 56.2929 186.272 56.8874 185.763 57.312C184.022 58.6707 182.196 59.9021 179.776 59.9021ZM179.181 58.416C179.181 58.6283 179.266 58.7557 179.394 58.8831C180.116 57.7791 180.837 56.6751 181.644 55.6985C180.455 56.1231 179.181 57.4818 179.181 58.416Z" fill="black"/>
<path d="M191.198 60.4541C191.41 60.5815 190.858 61.5581 190.434 62.1526C189.202 63.5963 188.438 64.1483 186.867 65.0824C185.423 65.8467 181.687 67.7999 180.922 65.0824C180.158 62.1526 184.362 55.9532 187.122 54.6794C188.098 54.1698 189.372 54.1698 189.839 55.4012C191.41 59.7323 185.848 61.9403 183.003 63.299C182.748 63.3415 182.536 63.4264 182.281 63.5113C182.026 64.2332 181.941 64.8701 182.069 65.3796C182.451 66.2289 185.253 65.1249 186.485 64.3606C188.226 63.2566 188.608 62.8744 189.797 61.728C190.179 61.0486 190.943 60.3267 191.198 60.4541ZM182.748 62.4073C185.72 61.176 189.882 59.0529 189.075 55.9532C188.863 55.5711 188.183 55.9532 187.504 56.4628C185.635 57.7366 183.81 60.1569 182.748 62.4073Z" fill="black"/>
<path d="M198.629 55.4862C195.317 57.312 192.557 60.5815 190.603 63.8935C189.627 65.507 189.499 66.2713 189.032 66.2713C188.82 66.2713 188.693 65.9316 188.693 65.4221C188.693 65.04 188.693 64.4455 189.032 63.8086C191.283 58.968 193.576 54 195.699 54.3822C195.911 54.4246 196.039 54.5095 196.039 54.7218C196.039 55.4861 194.467 57.1846 193.788 58.2886C195.019 57.0148 197.652 54.4246 199.351 54.4246C200.115 54.4246 200.709 55.0191 200.709 56.2929C200.709 59.2652 199.011 59.9871 198.714 59.9871C198.119 59.9871 198.247 59.1378 198.374 58.8406C198.586 58.3735 199.478 57.0148 199.648 55.656C199.69 55.104 198.968 55.3163 198.629 55.4862Z" fill="black"/>
<path d="M217.312 67.7575C217.312 69.0313 214.212 70.5599 210.773 70.5599C208.31 70.5599 205.72 69.6682 203.384 69.0738C200.879 72.1735 198.204 74.0418 195.189 73.9993C193.746 73.9993 191.453 73.1501 191.453 71.2818C191.453 68.0972 195.444 67.5452 197.737 67.5452C199.351 67.5452 200.922 67.7575 202.535 68.0547C203.894 66.3138 204.743 64.6153 205.04 63.9784C201.558 66.1864 200.582 66.4412 200.2 66.4412C198.841 66.4412 198.756 64.9975 198.756 64.9975C198.756 64.8701 198.756 64.7427 198.756 64.6153C198.756 63.1717 201.983 54.3822 205.295 54.3822C205.635 54.3822 205.762 54.5095 205.762 54.7643C205.762 55.0191 205.55 55.3588 205.507 55.4012C200.327 62.4923 199.903 64.5729 199.903 64.5729C199.818 64.7852 199.818 64.9126 199.818 65.04C199.818 65.507 200.157 65.5495 200.327 65.5495C200.794 65.5495 204.87 63.0867 205.635 62.7046C207.376 59.0954 209.456 54.3822 211.962 54.3822C212.216 54.3822 212.301 54.5945 212.301 54.7643C212.301 55.0191 212.174 55.3588 212.089 55.4012C209.159 59.3501 206.994 64.5729 203.936 68.3944C206.399 69.0313 208.862 69.7532 211.24 69.7532C212.131 69.7532 213.108 69.5409 213.957 69.371C214.976 69.0313 215.316 67.2904 216.802 67.2904C217.014 67.2904 217.142 67.3329 217.269 67.5027C217.312 67.5876 217.312 67.715 217.312 67.7575ZM201.983 68.7341C200.624 68.4793 199.266 68.267 197.907 68.267C195.571 68.267 192.217 68.8615 192.217 71.1544C192.217 72.5132 194.043 73.1501 195.147 73.1501C196.251 73.1501 197.355 72.7679 198.374 72.131C199.818 71.1968 200.964 69.9655 201.983 68.7341Z" fill="black"/>
<path d="M122.956 19.0782C123.012 19.0782 123.067 19.0228 123.178 19.0228C122.901 18.7455 122.624 18.4127 122.346 18.1354C122.013 17.8027 121.736 17.4699 121.403 17.1371C121.403 17.1926 121.403 17.2481 121.403 17.359C121.348 18.3018 122.069 19.0228 122.956 19.0782Z" fill="black"/>
<path d="M120.183 43.2588C120.017 43.3697 119.906 43.4252 119.74 43.5361C119.019 43.8689 117.909 43.7579 117.022 43.4806C116.911 43.4252 116.745 43.3697 116.634 43.3697C116.19 43.2033 116.246 41.8723 116.079 40.874C115.192 40.874 114.083 40.874 113.362 40.874C113.195 41.8723 113.251 43.1479 112.807 43.3697C112.752 43.4252 112.641 43.4252 112.53 43.4806C111.698 43.8134 110.644 43.9798 109.812 43.647C109.369 43.4806 108.98 43.2033 108.648 42.926C108.093 42.4824 107.538 41.9832 106.984 41.5395C106.596 41.2622 106.263 40.9295 105.93 40.5967C105.764 40.7076 105.597 40.7631 105.431 40.874C105.764 41.8168 105.819 42.926 106.429 43.5916L106.485 43.647C108.592 45.81 110.866 47.862 113.251 49.7476C113.916 50.2468 115.58 50.2468 116.246 49.7476C118.464 48.0284 120.572 46.0873 122.568 44.0907C122.679 43.9798 122.845 43.8134 122.956 43.7025C123.566 43.037 123.622 41.8168 123.899 40.8186C122.346 41.5395 121.348 42.5933 120.183 43.2588Z" fill="black"/>
<path d="M126.839 36.2708C125.785 36.4927 125.064 36.659 124.287 36.8809C122.18 37.38 120.072 37.2136 118.242 35.9935C117.022 35.1616 116.19 35.3835 115.303 36.2154C117.078 38.8774 123.455 38.9884 126.839 36.2708Z" fill="black"/>
<path d="M114.859 36.2154C113.916 35.3835 113.14 35.1616 111.92 35.9935C110.145 37.2136 108.038 37.38 105.875 36.8809C105.154 36.7145 104.377 36.5481 103.323 36.2708C106.651 38.9884 113.084 38.8774 114.859 36.2154Z" fill="black"/>
<path d="M128.78 25.068C128.669 24.9016 128.28 24.7906 127.67 24.7352C125.175 24.347 119.13 24.4579 114.748 24.5688C109.313 24.4024 101.216 24.2915 100.661 25.068C100.218 25.7335 100.495 26.5099 100.55 27.0645C100.55 27.73 100.828 28.9502 100.994 30.1703C101.271 32.3887 102.713 33.7197 104.932 33.8861C108.315 34.1079 111.698 33.4979 112.308 29.6711C112.53 28.1737 113.639 26.8981 114.693 26.7872C115.691 26.8981 116.8 28.1737 117.078 29.6711C117.688 33.4979 121.071 34.1079 124.454 33.8861C126.728 33.7197 128.17 32.3887 128.391 30.1703C128.558 28.9502 128.835 27.73 128.835 27.0645C128.891 26.8427 128.891 26.6208 128.946 26.3435C129.057 25.8999 129.001 25.4562 128.78 25.068ZM111.476 30.3367C110.866 32.0005 109.202 32.8324 107.538 33.0542C103.49 33.6643 101.549 31.3904 101.66 27.5082C101.715 26.0662 107.15 25.8998 110.367 26.399C111.92 26.6208 111.864 29.3384 111.476 30.3367ZM121.847 33.0542C120.183 32.8324 118.519 32.0005 117.909 30.3367C117.521 29.3384 117.466 26.6208 119.019 26.399C122.235 25.8998 127.67 26.0662 127.726 27.5082C127.837 31.3904 125.951 33.6643 121.847 33.0542Z" fill="black"/>
<path d="M138.762 29.0056C137.487 25.4562 135.324 22.3504 132.828 19.5774C132.551 20.0765 131.941 21.574 131.664 21.9067C131.331 22.3504 130.832 22.5722 130.332 22.5722H126.617C126.894 22.8495 127.171 23.1268 127.393 23.4041C127.726 23.7369 127.948 24.0142 128.225 24.347C128.835 24.4579 129.279 24.5688 129.39 24.7352C129.667 25.1234 129.667 25.6225 129.612 26.0662C130.943 27.8409 131.885 29.5047 132.495 31.224C133.327 33.5533 133.605 35.2726 133.327 36.8809C132.995 39.2102 132.606 40.9295 131.719 42.2605C130.61 43.9798 129.112 44.9226 126.728 45.4218C126.395 45.4772 126.062 45.5327 125.729 45.5327C125.23 45.5327 124.676 45.4218 123.844 44.8672C123.733 44.9781 123.566 45.089 123.566 45.089C121.293 47.4183 119.185 49.304 117.078 50.9123C116.246 51.5224 115.136 51.6333 114.526 51.6333C113.916 51.6333 112.863 51.5224 112.031 50.9123C109.812 49.1931 107.538 47.1965 105.098 44.7008C105.043 44.6453 104.932 44.5344 104.876 44.4789C104.821 44.4235 104.765 44.3126 104.71 44.2571C103.656 44.7562 102.88 45.0335 102.159 45.1445C101.937 45.1999 101.715 45.1999 101.493 45.1999C100.772 45.1999 100.162 45.0335 99.6076 44.6453C96.9456 42.8706 95.67 40.4858 95.5036 36.77C95.3927 33.9415 95.7809 31.6677 96.7792 29.7266C97.9438 27.4527 99.164 25.678 100.55 24.2915C101.161 23.7369 101.715 23.1268 102.325 22.5722H99.8295C99.3303 22.5722 98.8312 22.3504 98.5539 21.9622C98.2211 21.574 97.4447 19.0228 97.1674 18.3018C96.7237 18.7455 96.28 19.1337 95.8918 19.5774C93.9507 21.7403 92.3424 24.1806 91.0113 26.7872C89.403 30.0593 88.9038 33.4979 89.0148 37.1028C89.2366 42.6488 91.3996 47.141 96.1137 50.2468C97.7775 51.356 99.6631 51.9106 101.66 51.9106C102.214 51.9106 102.769 51.8551 103.323 51.7997C105.154 51.5224 106.817 50.8014 108.481 49.9695C108.814 49.8031 109.202 49.4149 109.59 49.4149C109.812 49.4149 110.09 49.5813 110.256 50.0249C110.533 51.1341 109.757 52.5207 109.258 53.7408C107.705 57.4011 105.431 60.5624 102.492 63.2244C102.27 63.4463 101.771 63.7236 101.881 64.1118C101.992 64.3336 102.214 64.3891 102.381 64.3891C102.492 64.3891 102.602 64.3891 102.658 64.3891C110.034 64.3891 117.466 64.3891 124.842 64.3336C125.008 64.3336 125.286 64.2782 125.397 64.0563C125.507 63.779 125.341 63.6127 125.286 63.5572C122.845 61.6716 121.459 58.954 120.017 56.3474C119.13 54.739 118.686 52.9643 118.131 51.1896C118.02 50.8014 118.131 50.0804 118.52 49.914C118.686 49.8031 118.852 49.7476 119.019 49.7476C119.296 49.7476 119.573 49.914 119.795 50.1359C121.625 51.5224 123.622 52.1879 125.729 52.1879C126.506 52.1879 127.282 52.077 128.114 51.9106C131.996 51.0787 135.102 49.2485 137.32 45.8654C138.929 43.3697 139.483 40.6522 139.927 37.7683C140.371 34.718 139.761 31.8341 138.762 29.0056Z" fill="black"/>
<path d="M111.698 3.32761C110.201 5.32417 108.537 7.15435 106.817 8.92907L106.984 9.20637L107.76 8.98453C109.202 8.59631 110.589 8.15263 111.975 7.70895C112.031 7.70895 112.197 7.54257 112.363 7.26527C112.585 6.87705 112.752 6.43337 112.918 6.04515V5.98969" fill="black"/>
<path d="M117.854 5.32416C117.743 5.546 117.577 5.76784 117.355 6.04514C117.466 6.43336 117.632 6.76612 117.799 7.04342C118.076 7.43164 118.464 7.7644 118.741 7.87532C119.906 8.26354 121.071 8.65176 122.346 9.03998L122.79 9.20636C122.457 8.8736 122.124 8.54084 121.792 8.15262C120.627 6.87704 119.518 5.546 118.464 4.1595C118.409 4.54772 118.187 4.93594 117.854 5.32416Z" fill="black"/>
<path d="M135.102 7.37618C135.157 6.76612 134.991 6.1006 134.603 5.71238C134.159 5.21324 133.66 4.93594 133.05 4.88048C132.828 4.82502 132.606 4.76956 132.329 4.76956C130.832 4.76956 129.611 5.98968 129.611 7.4871C129.611 8.15262 129.889 8.76268 130.277 9.26182C130.332 9.4282 130.388 9.65004 130.443 9.81642C130.332 9.92734 130.222 10.0937 130.166 10.2601C129.778 10.8147 129.334 11.4248 128.78 11.9794C128.502 12.2567 128.17 12.423 127.781 12.423C127.615 12.423 127.171 12.3676 127.06 11.8684C126.894 10.9811 126.894 10.0937 126.894 9.09544C126.894 8.76268 126.894 8.37446 126.894 8.0417C128.336 7.87532 129.445 6.71066 129.445 5.21324C129.445 4.60318 129.279 4.04858 128.946 3.6049C128.946 3.6049 128.946 3.6049 128.946 3.54944C128.558 2.93938 127.948 2.55116 127.282 2.44024C127.06 2.38478 126.838 2.38478 126.617 2.38478C125.674 2.38478 124.897 2.82846 124.343 3.49398C124.343 3.54944 124.287 3.54944 124.287 3.6049L124.232 3.66036C124.01 3.99312 123.788 4.32588 123.733 4.65864C123.622 5.15778 123.677 5.65692 123.899 6.1006C124.065 6.54428 124.287 6.98796 124.676 7.32072C124.786 7.65348 124.676 7.93078 124.454 8.37446C124.176 8.8736 123.899 9.31728 123.622 9.7055L123.511 9.87188L122.235 9.4282C120.96 9.03998 119.74 8.70722 118.575 8.26354C118.187 8.09716 117.743 7.7644 117.355 7.26526C117.133 6.98796 116.967 6.59974 116.856 6.15606C116.8 6.04514 116.8 5.98968 116.745 5.87876C117.078 5.546 117.299 5.2687 117.466 4.9914C117.909 4.4368 118.242 3.77128 118.242 2.99484C118.242 1.33104 116.911 0 115.247 0C113.694 0 112.419 1.16466 112.252 2.71754C111.975 3.71582 112.53 4.7141 113.528 5.93422L113.417 6.21152C113.251 6.6552 113.084 7.09888 112.807 7.54256C112.641 7.87532 112.363 8.15262 112.142 8.20808C110.755 8.65176 109.369 9.03998 107.871 9.48366L106.762 9.81642L105.486 7.4871C106.096 7.04342 106.54 6.32244 106.596 5.49054C106.651 5.2687 106.651 5.04686 106.596 4.82502C106.54 4.60318 106.485 4.38134 106.374 4.1595C106.374 4.1595 106.374 4.10404 106.318 4.10404C106.263 4.04858 106.263 3.93766 106.207 3.8822C105.708 2.99484 104.821 2.38478 103.712 2.38478C103.49 2.38478 103.268 2.38478 103.102 2.44024C102.436 2.55116 101.826 2.93938 101.382 3.54944C101.271 3.71582 101.16 3.8822 101.105 4.10404C101.05 4.21496 101.05 4.32588 100.994 4.38134C100.939 4.65864 100.828 4.93594 100.828 5.21324C100.828 6.6552 101.881 7.81986 103.268 8.0417C103.268 8.09716 103.323 8.09716 103.323 8.15262C103.379 9.26182 103.434 10.4265 103.268 11.4802C103.268 11.5911 103.213 11.7021 103.157 11.813C103.046 12.0348 102.88 12.3676 102.381 12.4785C102.103 12.4785 101.771 12.3121 101.493 12.0348C100.939 11.4802 100.495 10.8702 99.9404 10.2046C99.774 10.0383 99.6631 9.81642 99.4967 9.59458C99.6076 9.48366 99.774 9.31728 99.8295 9.1509C100.273 8.42992 100.384 7.70894 100.218 6.98796C100.162 6.76612 100.051 6.54428 99.9404 6.3779C99.4967 5.32416 98.4984 4.60318 97.2783 4.60318C95.7254 4.60318 94.4498 5.87876 94.4498 7.43164C94.4498 8.98452 95.7254 10.2601 97.2783 10.2601C97.3892 10.2601 97.4447 10.2601 97.5556 10.2046C97.7774 10.5374 97.8329 10.9811 97.9438 11.5357C97.9993 11.813 98.0547 12.1457 98.1102 12.423C98.2766 13.0886 98.3875 13.7541 98.2766 14.2532C97.9993 15.3624 97.8329 16.1943 97.9438 16.9708C97.9993 17.5254 98.332 18.4127 98.6648 19.3555C98.8866 19.9656 99.1085 20.5757 99.2194 20.9639C99.2749 21.1857 99.4967 21.3521 99.7185 21.3521H130.055C130.277 21.3521 130.443 21.2412 130.499 21.0193C130.832 20.132 131.109 19.5774 131.331 19.1337C131.497 18.8009 131.664 18.5236 131.719 18.3018C131.774 18.08 131.885 17.9136 131.941 17.7472C132.329 16.8044 132.606 16.0279 131.996 14.6969C131.608 13.9205 131.553 13.6986 131.664 13.2549C131.719 12.8667 131.774 12.534 131.83 12.1457C131.941 11.3693 132.052 10.7038 132.384 10.1492C133.771 10.0383 134.88 8.8736 134.88 7.43164C135.102 7.43164 135.102 7.37618 135.102 7.37618ZM101.826 18.1354C101.382 18.1354 100.994 17.8581 100.828 17.3035C100.772 17.2481 100.772 17.1371 100.772 17.0817C100.772 17.0262 100.828 16.9708 100.883 16.9153C100.994 16.4716 101.382 16.1389 101.826 16.1389C102.381 16.1389 102.824 16.5825 102.824 17.1371C102.824 17.6917 102.381 18.1354 101.826 18.1354ZM108.592 17.2481C108.648 17.8027 108.37 18.3018 107.816 18.5791C107.483 18.8009 107.206 18.9119 106.873 18.9119C105.93 18.9119 105.154 18.1354 105.154 17.1926C105.154 16.2498 105.93 15.4733 106.873 15.4733C107.816 15.4733 108.592 16.2498 108.592 17.0817C108.592 17.0817 108.592 17.1371 108.592 17.2481ZM115.136 18.8564C114.194 18.8564 113.417 18.08 113.417 17.1371C113.417 16.1943 114.194 15.4179 115.136 15.4179C116.079 15.4179 116.856 16.1943 116.856 17.1371C116.856 18.08 116.079 18.8564 115.136 18.8564ZM123.067 18.6346C122.901 18.6346 122.734 18.5791 122.457 18.4682C122.18 18.3573 121.958 18.08 121.847 17.8027L121.792 17.5808C121.792 17.4699 121.736 17.4144 121.736 17.3035C121.736 17.2481 121.736 17.1926 121.681 17.1926C121.681 16.3607 122.291 15.6952 123.012 15.6952C123.733 15.6952 124.343 16.3607 124.343 17.1926C124.398 17.969 123.788 18.6346 123.067 18.6346ZM128.558 18.1354C128.003 18.1354 127.559 17.6917 127.559 17.1371C127.559 16.5825 128.003 16.1389 128.558 16.1389C129.112 16.1389 129.556 16.5825 129.556 17.1371C129.611 17.6917 129.112 18.1354 128.558 18.1354Z" fill="black"/>
</svg>
