<svg width="39" height="48" viewBox="0 0 39 48" fill="none" xmlns="http://www.w3.org/2000/svg">
<path d="M25.3133 14.2222C25.3547 14.2222 25.396 14.1809 25.4787 14.1809C25.272 13.9742 25.0653 13.7261 24.8585 13.5194C24.6105 13.2713 24.4038 13.0233 24.1557 12.7752C24.1557 12.8165 24.1557 12.8579 24.1557 12.9406C24.1144 13.6434 24.6518 14.1809 25.3133 14.2222Z" fill="black"/>
<path d="M23.2462 32.248C23.1221 32.3307 23.0394 32.3721 22.9154 32.4548C22.3779 32.7028 21.5511 32.6201 20.8896 32.4134C20.8069 32.3721 20.6829 32.3307 20.6002 32.3307C20.2694 32.2067 20.3108 31.2145 20.1867 30.4703C19.5252 30.4703 18.6984 30.4703 18.1609 30.4703C18.0369 31.2145 18.0782 32.1654 17.7475 32.3307C17.7061 32.3721 17.6234 32.3721 17.5407 32.4134C16.9206 32.6615 16.1351 32.7855 15.5149 32.5375C15.1841 32.4134 14.8947 32.2067 14.6467 32C14.2332 31.6692 13.8198 31.2971 13.4064 30.9664C13.117 30.7597 12.8689 30.5116 12.6208 30.2635C12.4968 30.3462 12.3728 30.3876 12.2487 30.4703C12.4968 31.1731 12.5382 32 12.9929 32.4961L13.0343 32.5375C14.6053 34.1499 16.3004 35.6796 18.0782 37.0853C18.5743 37.4573 19.8146 37.4573 20.3108 37.0853C21.9645 35.8036 23.5356 34.3566 25.0239 32.8682C25.1066 32.7855 25.2307 32.6615 25.3133 32.5788C25.7681 32.0827 25.8095 31.1731 26.0162 30.4289C24.8586 30.9664 24.1144 31.7519 23.2462 32.248Z" fill="black"/>
<path d="M28.2074 27.0387C27.4219 27.2041 26.8844 27.3281 26.3056 27.4935C24.7345 27.8656 23.1635 27.7416 21.7991 26.832C20.8896 26.2119 20.2694 26.3772 19.6079 26.9974C20.9309 28.9819 25.6854 29.0646 28.2074 27.0387Z" fill="black"/>
<path d="M19.2772 26.9974C18.5743 26.3772 17.9955 26.2119 17.0859 26.832C15.7629 27.7416 14.1919 27.8656 12.5795 27.4935C12.042 27.3695 11.4632 27.2455 10.6777 27.0387C13.1583 29.0646 17.9542 28.9819 19.2772 26.9974Z" fill="black"/>
<path d="M29.6544 18.6874C29.5717 18.5633 29.2823 18.4806 28.8275 18.4393C26.9671 18.1499 22.4606 18.2326 19.1945 18.3153C15.1428 18.1912 9.10662 18.1085 8.69318 18.6874C8.36243 19.1835 8.56915 19.7623 8.61049 20.1757C8.61049 20.6719 8.81721 21.5814 8.94124 22.491C9.14796 24.1447 10.2229 25.137 11.8766 25.261C14.3986 25.4264 16.9206 24.9716 17.3753 22.1189C17.5407 21.0026 18.3676 20.0517 19.1531 19.969C19.8973 20.0517 20.7242 21.0026 20.9309 22.1189C21.3857 24.9716 23.9076 25.4264 26.4296 25.261C28.1247 25.137 29.1996 24.1447 29.365 22.491C29.489 21.5814 29.6958 20.6719 29.6958 20.1757C29.7371 20.0104 29.7371 19.845 29.7785 19.6383C29.8611 19.3075 29.8198 18.9768 29.6544 18.6874ZM16.7552 22.615C16.3004 23.8553 15.0601 24.4755 13.8198 24.6408C10.8017 25.0956 9.35468 23.4005 9.43737 20.5065C9.47871 19.4315 13.5304 19.3075 15.9283 19.6796C17.0859 19.845 17.0446 21.8708 16.7552 22.615ZM24.4865 24.6408C23.2462 24.4755 22.0058 23.8553 21.5511 22.615C21.2617 21.8708 21.2203 19.845 22.3779 19.6796C24.7759 19.3075 28.8275 19.4315 28.8689 20.5065C28.9516 23.4005 27.5459 25.0956 24.4865 24.6408Z" fill="black"/>
<path d="M37.0963 21.6227C36.1454 18.9768 34.533 16.6615 32.6725 14.5943C32.4658 14.9664 32.011 16.0827 31.8043 16.3308C31.5562 16.6615 31.1841 16.8269 30.812 16.8269H28.042C28.2487 17.0336 28.4555 17.2403 28.6208 17.447C28.8689 17.6951 29.0343 17.9018 29.241 18.1499C29.6958 18.2326 30.0265 18.3153 30.1092 18.4393C30.3159 18.7287 30.3159 19.1008 30.2746 19.4315C31.2668 20.7545 31.9697 21.9948 32.4244 23.2765C33.0446 25.0129 33.2513 26.2946 33.0446 27.4935C32.7965 29.23 32.5071 30.5116 31.8456 31.5039C31.0188 32.7855 29.9025 33.4884 28.1247 33.8605C27.8766 33.9018 27.6286 33.9432 27.3805 33.9432C27.0084 33.9432 26.595 33.8605 25.9748 33.447C25.8921 33.5297 25.7681 33.6124 25.7681 33.6124C24.073 35.3488 22.502 36.7545 20.9309 37.9535C20.3108 38.4083 19.4839 38.491 19.0291 38.491C18.5743 38.491 17.7888 38.4083 17.1686 37.9535C15.5149 36.6718 13.8198 35.1835 12.0007 33.323C11.9593 33.2817 11.8766 33.199 11.8353 33.1576C11.794 33.1163 11.7526 33.0336 11.7113 32.9923C10.9257 33.3643 10.3469 33.5711 9.80946 33.6538C9.64409 33.6951 9.47871 33.6951 9.31334 33.6951C8.77587 33.6951 8.32109 33.5711 7.90765 33.2817C5.92316 31.9587 4.97225 30.1809 4.84822 27.4109C4.76553 25.3023 5.05494 23.6072 5.79912 22.1602C6.66734 20.4651 7.5769 19.1421 8.61049 18.1085C9.06527 17.6951 9.47871 17.2403 9.93349 16.8269H8.07303C7.70093 16.8269 7.32884 16.6615 7.12212 16.3721C6.87406 16.0827 6.29525 14.1809 6.08853 13.6434C5.75778 13.9742 5.42703 14.2636 5.13763 14.5943C3.6906 16.2067 2.49163 18.0258 1.49938 19.969C0.300416 22.4083 -0.0716768 24.9716 0.0110105 27.6589C0.176385 31.7933 1.78879 35.1421 5.303 37.4574C6.54331 38.2842 7.94899 38.6977 9.43737 38.6977C9.8508 38.6977 10.2642 38.6563 10.6777 38.615C12.042 38.4083 13.2823 37.8708 14.5226 37.2507C14.7707 37.1266 15.0601 36.8372 15.3495 36.8372C15.5149 36.8372 15.7216 36.9612 15.8456 37.292C16.0524 38.1189 15.4735 39.1525 15.1014 40.062C13.9438 42.7907 12.2487 45.1473 10.0575 47.1318C9.89215 47.2972 9.52005 47.5039 9.60274 47.7933C9.68543 47.9587 9.8508 48 9.97484 48C10.0575 48 10.1402 48 10.1816 48C15.6803 48 21.2203 48 26.719 47.9587C26.8431 47.9587 27.0498 47.9173 27.1325 47.7519C27.2151 47.5452 27.0911 47.4212 27.0498 47.3798C25.2306 45.9742 24.1971 43.9483 23.1221 42.0052C22.4606 40.8062 22.1299 39.4832 21.7164 38.1602C21.6337 37.8708 21.7164 37.3333 22.0058 37.2093C22.1299 37.1266 22.2539 37.0853 22.3779 37.0853C22.5847 37.0853 22.7914 37.2093 22.9567 37.3747C24.3211 38.4083 25.8095 38.9044 27.3805 38.9044C27.9593 38.9044 28.5381 38.8217 29.1583 38.6977C32.0524 38.0775 34.3676 36.7132 36.0213 34.1912C37.2203 32.3308 37.6338 30.3049 37.9645 28.155C38.2952 25.8811 37.8405 23.7313 37.0963 21.6227Z" fill="black"/>
<path d="M16.9206 2.48062C15.8043 3.96899 14.564 5.33333 13.2823 6.65633L13.4064 6.86305L13.9852 6.69768C15.0601 6.40827 16.0937 6.07752 17.1273 5.74677C17.1687 5.74677 17.2927 5.62274 17.4167 5.41602C17.5821 5.12662 17.7061 4.79587 17.8302 4.50646V4.46512" fill="black"/>
<path d="M21.5097 3.96899C21.427 4.13436 21.303 4.29974 21.1376 4.50645C21.2203 4.79586 21.3444 5.04392 21.4684 5.25064C21.6751 5.54005 21.9645 5.78811 22.1712 5.87079C23.0394 6.1602 23.9077 6.44961 24.8586 6.73901L25.1893 6.86304C24.9413 6.61498 24.6932 6.36692 24.4451 6.07751C23.5769 5.12661 22.75 4.13436 21.9645 3.10077C21.9232 3.39017 21.7578 3.67958 21.5097 3.96899Z" fill="black"/>
<path d="M34.3676 5.49871C34.4089 5.04393 34.2849 4.5478 33.9955 4.2584C33.6647 3.88631 33.2927 3.67959 32.8379 3.63824C32.6725 3.5969 32.5071 3.55556 32.3004 3.55556C31.1841 3.55556 30.2746 4.46512 30.2746 5.5814C30.2746 6.07752 30.4813 6.5323 30.7707 6.90439C30.812 7.02842 30.8534 7.1938 30.8947 7.31783C30.812 7.40052 30.7293 7.52455 30.688 7.64858C30.3986 8.06202 30.0678 8.5168 29.6544 8.93023C29.4477 9.13695 29.1996 9.26098 28.9102 9.26098C28.7862 9.26098 28.4554 9.21964 28.3728 8.84755C28.2487 8.18605 28.2487 7.52455 28.2487 6.78036C28.2487 6.5323 28.2487 6.24289 28.2487 5.99483C29.3237 5.8708 30.1505 5.00258 30.1505 3.8863C30.1505 3.43152 30.0265 3.01809 29.7784 2.68734C29.7784 2.68734 29.7784 2.68734 29.7784 2.64599C29.489 2.19121 29.0343 1.90181 28.5381 1.81912C28.3728 1.77778 28.2074 1.77778 28.042 1.77778C27.3392 1.77778 26.7604 2.10853 26.3469 2.60465C26.3469 2.646 26.3056 2.64599 26.3056 2.68734L26.2642 2.72868C26.0989 2.97674 25.9335 3.22481 25.8921 3.47287C25.8095 3.84496 25.8508 4.21705 26.0162 4.5478C26.1402 4.87855 26.3056 5.2093 26.595 5.45736C26.6777 5.70543 26.595 5.91215 26.4296 6.24289C26.2229 6.61499 26.0162 6.94574 25.8095 7.23514L25.7268 7.35917L24.7759 7.02842C23.825 6.73902 22.9154 6.49096 22.0472 6.16021C21.7578 6.03618 21.427 5.78811 21.1376 5.41602C20.9722 5.2093 20.8482 4.9199 20.7655 4.58915C20.7242 4.50646 20.7242 4.46512 20.6828 4.38243C20.9309 4.13437 21.0963 3.92765 21.2203 3.72093C21.5511 3.30749 21.7991 2.81137 21.7991 2.23256C21.7991 0.992248 20.8069 0 19.5666 0C18.4089 0 17.458 0.868217 17.334 2.02584C17.1273 2.77003 17.5407 3.51421 18.2849 4.42377L18.2022 4.63049C18.0782 4.96124 17.9542 5.29199 17.7474 5.62274C17.6234 5.8708 17.4167 6.07752 17.2513 6.11886C16.2177 6.44961 15.1841 6.73902 14.0679 7.06977L13.241 7.31783L12.2901 5.5814C12.7449 5.25065 13.0756 4.71318 13.1169 4.09302C13.1583 3.92765 13.1583 3.76227 13.1169 3.5969C13.0756 3.43152 13.0343 3.26615 12.9516 3.10078C12.9516 3.10078 12.9516 3.05943 12.9102 3.05943C12.8689 3.01809 12.8689 2.9354 12.8275 2.89406C12.4554 2.23256 11.7939 1.77778 10.9671 1.77778C10.8017 1.77778 10.6363 1.77778 10.5123 1.81912C10.0162 1.90181 9.56139 2.19121 9.23064 2.64599C9.14795 2.77003 9.06527 2.89406 9.02392 3.05943C8.98258 3.14212 8.98258 3.22481 8.94124 3.26615C8.89989 3.47287 8.8172 3.67959 8.8172 3.8863C8.8172 4.96124 9.60273 5.82946 10.6363 5.99483C10.6363 6.03618 10.6777 6.03618 10.6777 6.07752C10.719 6.90439 10.7604 7.77261 10.6363 8.55814C10.6363 8.64083 10.595 8.72351 10.5536 8.8062C10.471 8.97158 10.3469 9.21964 9.97483 9.30233C9.76811 9.30233 9.52005 9.1783 9.31333 8.97158C8.89989 8.55814 8.56914 8.10336 8.15571 7.60724C8.03168 7.4832 7.94899 7.31783 7.82496 7.15245C7.90764 7.06977 8.03167 6.94574 8.07302 6.82171C8.40377 6.28424 8.48646 5.74677 8.36242 5.2093C8.32108 5.04393 8.23839 4.87855 8.15571 4.75452C7.82496 3.96899 7.08077 3.43152 6.17121 3.43152C5.01359 3.43152 4.06268 4.38243 4.06268 5.54005C4.06268 6.69767 5.01359 7.64858 6.17121 7.64858C6.2539 7.64858 6.29524 7.64858 6.37793 7.60724C6.5433 7.8553 6.58465 8.18605 6.66733 8.59948C6.70868 8.8062 6.75002 9.05426 6.79136 9.26098C6.9154 9.75711 6.99808 10.2532 6.9154 10.6253C6.70868 11.4522 6.58465 12.0724 6.66733 12.6512C6.70868 13.0646 6.95674 13.7261 7.2048 14.4289C7.37018 14.8837 7.53555 15.3385 7.61824 15.6279C7.65958 15.7933 7.82496 15.9173 7.99033 15.9173H30.6053C30.7707 15.9173 30.8947 15.8346 30.9361 15.6693C31.1841 15.0078 31.3908 14.5943 31.5562 14.2636C31.6803 14.0155 31.8043 13.8088 31.8456 13.6434C31.887 13.478 31.9697 13.354 32.011 13.23C32.3004 12.5271 32.5071 11.9483 32.0523 10.9561C31.7629 10.3773 31.7216 10.2119 31.8043 9.88114C31.8456 9.59173 31.887 9.34367 31.9283 9.05426C32.011 8.47545 32.0937 7.97933 32.3417 7.56589C33.3753 7.4832 34.2022 6.61499 34.2022 5.54005C34.3676 5.54005 34.3676 5.49871 34.3676 5.49871ZM9.56139 13.5194C9.23064 13.5194 8.94124 13.3127 8.8172 12.8992C8.77586 12.8579 8.77586 12.7752 8.77586 12.7339C8.77586 12.6925 8.8172 12.6512 8.85855 12.6098C8.94124 12.2791 9.23064 12.031 9.56139 12.031C9.97483 12.031 10.3056 12.3618 10.3056 12.7752C10.3056 13.1886 9.97483 13.5194 9.56139 13.5194ZM14.6053 12.8579C14.6467 13.2713 14.4399 13.6434 14.0265 13.8501C13.7784 14.0155 13.5717 14.0982 13.3237 14.0982C12.6208 14.0982 12.042 13.5194 12.042 12.8165C12.042 12.1137 12.6208 11.5349 13.3237 11.5349C14.0265 11.5349 14.6053 12.1137 14.6053 12.7339C14.6053 12.7339 14.6053 12.7752 14.6053 12.8579ZM19.4839 14.0568C18.781 14.0568 18.2022 13.478 18.2022 12.7752C18.2022 12.0724 18.781 11.4935 19.4839 11.4935C20.1867 11.4935 20.7655 12.0724 20.7655 12.7752C20.7655 13.478 20.1867 14.0568 19.4839 14.0568ZM25.396 13.8915C25.272 13.8915 25.148 13.8501 24.9412 13.7674C24.7345 13.6848 24.5691 13.478 24.4865 13.2713L24.4451 13.1059C24.4451 13.0233 24.4038 12.9819 24.4038 12.8992C24.4038 12.8579 24.4038 12.8165 24.3624 12.8165C24.3624 12.1964 24.8172 11.7003 25.3547 11.7003C25.8921 11.7003 26.3469 12.1964 26.3469 12.8165C26.3883 13.3953 25.9335 13.8915 25.396 13.8915ZM29.489 13.5194C29.0756 13.5194 28.7449 13.1886 28.7449 12.7752C28.7449 12.3618 29.0756 12.031 29.489 12.031C29.9025 12.031 30.2332 12.3618 30.2332 12.7752C30.2746 13.1886 29.9025 13.5194 29.489 13.5194Z" fill="black"/>
</svg>
