<svg width="101" height="43" viewBox="0 0 101 43" fill="none" xmlns="http://www.w3.org/2000/svg">
<path d="M67.3112 15.8828C67.6775 15.8828 67.9744 15.5859 67.9744 15.2197C67.9744 14.8534 67.6775 14.5565 67.3112 14.5565C66.945 14.5565 66.6481 14.8534 66.6481 15.2197C66.6481 15.5859 66.945 15.8828 67.3112 15.8828Z" fill="black"/>
<path d="M35.1146 28.4829C32.5282 29.9088 30.3729 32.4619 28.8477 35.0483C28.085 36.3083 27.9856 36.9051 27.6208 36.9051C27.455 36.9051 27.3555 36.6399 27.3555 36.242C27.3555 35.9436 27.3555 35.4793 27.6208 34.982C29.4114 31.2019 31.1687 27.3224 32.8267 27.6208C32.9924 27.654 33.0919 27.7203 33.0919 27.8861C33.0919 28.4829 31.8651 29.8093 31.3345 30.6714C32.2961 29.6766 34.3519 27.654 35.6783 27.654C36.2751 27.654 36.7393 28.1182 36.7393 29.113C36.7393 31.434 35.413 31.9977 35.1809 31.9977C34.7167 31.9977 34.8161 31.3346 34.9156 31.1024C35.0814 30.7377 35.7777 29.6766 35.9104 28.6156C35.9104 28.1845 35.3467 28.3503 35.1146 28.4829Z" fill="black"/>
<path d="M41.9783 32.9261C41.6799 32.9261 41.5804 33.1914 41.3815 33.4898C41.282 33.6556 38.8615 37.0709 36.242 37.0709C35.8441 37.0709 35.1146 36.9714 35.0814 35.8109C34.9156 32.064 39.3257 27.3224 41.9452 27.3224C43.2715 27.3224 43.3047 28.5824 43.3047 29.0466C43.3047 29.6435 43.1389 30.7708 42.2436 32.2298C43.7689 32.1303 44.9626 31.2351 45.5263 30.0414C45.5926 29.8756 45.7252 29.7761 45.8247 29.7761C46.2226 29.7761 46.1894 30.2735 46.1894 30.3398C45.4599 31.8319 43.8352 32.9261 41.9783 32.9261ZM41.0167 32.7935C39.7567 32.4951 38.7951 31.5335 38.7951 30.2072C38.7951 30.0414 38.7951 29.8424 38.8615 29.7098C37.6346 31.0361 36.2751 33.3572 36.2751 35.4793C36.2751 36.2751 36.6399 36.242 36.673 36.242C38.2978 36.1756 40.3536 33.6225 41.0167 32.7935ZM42.1773 29.6103C42.1773 28.6156 41.5804 28.3835 41.2157 28.3835C39.8562 28.3835 39.4583 29.8093 39.4583 30.2072C39.4583 31.0693 40.1546 31.8319 41.3815 32.1635C42.0115 30.8703 42.1773 30.0414 42.1773 29.6103Z" fill="black"/>
<path d="M54.5122 31.9314C53.3848 33.6888 51.5279 37.1372 48.8421 37.1372C48.2784 37.1372 47.8805 36.8388 47.8805 36.0762C47.8805 34.5509 49.2068 32.1304 49.7042 31.2351C48.2784 32.7935 45.1615 37.1372 43.6031 37.1372C43.5368 37.1372 42.8073 37.2367 42.8073 36.2751C42.8073 34.4514 45.7915 27.654 48.2452 27.654C48.4442 27.654 48.5105 27.7535 48.5105 27.9193C48.5105 28.1845 48.3447 28.4166 48.3447 28.4829C45.6257 32.064 43.4041 35.612 43.4373 36.6067C43.6363 36.5404 43.8352 36.4409 44.1005 36.242C46.8194 33.9209 48.9084 30.7377 51.76 28.2177C52.1579 27.8198 52.8874 27.654 53.219 27.654C53.4179 27.654 53.4842 27.8198 53.4842 27.9524C53.4842 28.1514 53.3848 28.4166 53.3185 28.4498C52.3237 29.8093 48.61 34.5509 48.61 36.3414C48.61 36.4409 48.61 36.5072 48.6763 36.5404C50.6326 36.8057 52.4563 34.0204 53.8158 31.7325C53.5174 31.4672 53.4179 31.1356 53.4179 30.7377C53.4179 28.8145 56.0374 27.7535 57.4632 27.7535C57.7285 27.7535 57.9275 27.8198 57.9275 27.8529C57.7285 27.8529 55.7722 29.8756 54.8437 31.3346C57.2643 31.3346 59.1875 28.8145 59.8838 28.8145C59.9501 28.8145 59.9501 28.8808 59.9501 28.914C59.9501 29.113 59.5854 29.5772 59.1875 29.9088C57.828 30.9698 56.4022 31.9314 54.5122 31.9314ZM54.0479 30.7709C54.0479 30.9367 54.1143 31.0361 54.2137 31.1356C54.7774 30.2735 55.3411 29.4114 55.9711 28.6487C55.0427 28.9803 54.0479 30.0414 54.0479 30.7709Z" fill="black"/>
<path d="M63.4317 32.3625C63.5975 32.4619 63.1664 33.2246 62.8349 33.6888C61.8733 34.8162 61.2764 35.2472 60.0496 35.9767C58.9222 36.5736 56.0043 38.0988 55.4074 35.9767C54.8106 33.6888 58.0932 28.8477 60.2485 27.8529C61.0112 27.455 62.0059 27.455 62.3706 28.4166C63.5975 31.7988 59.2538 33.523 57.0322 34.5841C56.8332 34.6172 56.6674 34.6835 56.4685 34.7498C56.2695 35.3135 56.2032 35.8109 56.3027 36.2088C56.6011 36.872 58.7896 36.0099 59.7511 35.413C61.1106 34.5509 61.4091 34.2525 62.3375 33.3572C62.6359 32.8267 63.2328 32.263 63.4317 32.3625ZM56.8332 33.8877C59.1543 32.9261 62.4038 31.2682 61.7738 28.8477C61.608 28.5493 61.0775 28.8477 60.5469 29.2456C59.088 30.2403 57.6622 32.1303 56.8332 33.8877Z" fill="black"/>
<path d="M69.2344 28.4829C66.6481 29.9088 64.4928 32.4619 62.9675 35.0483C62.2049 36.3083 62.1054 36.9051 61.7406 36.9051C61.5748 36.9051 61.4754 36.6399 61.4754 36.242C61.4754 35.9436 61.4754 35.4793 61.7406 34.982C63.498 31.2019 65.2886 27.3224 66.9465 27.6208C67.1123 27.654 67.2117 27.7203 67.2117 27.8861C67.2117 28.4829 65.9849 29.8093 65.4544 30.6714C66.4159 29.6766 68.4718 27.654 69.7981 27.654C70.3949 27.654 70.8592 28.1182 70.8592 29.113C70.8592 31.434 69.5328 31.9977 69.3007 31.9977C68.8365 31.9977 68.936 31.3346 69.0355 31.1024C69.2012 30.7377 69.8976 29.6766 70.0302 28.6156C70.0634 28.1845 69.4997 28.3503 69.2344 28.4829Z" fill="black"/>
<path d="M83.824 38.0657C83.824 39.0604 81.4035 40.2541 78.7176 40.2541C76.7945 40.2541 74.7718 39.5578 72.9481 39.0936C70.9918 41.5141 68.9028 42.9731 66.5486 42.9399C65.4212 42.9399 63.6306 42.2768 63.6306 40.8178C63.6306 38.3309 66.7475 37.8999 68.5381 37.8999C69.7981 37.8999 71.0249 38.0657 72.2849 38.2978C73.346 36.9383 74.0092 35.612 74.2413 35.1146C71.5223 36.8388 70.7597 37.0378 70.4612 37.0378C69.4002 37.0378 69.3339 35.9104 69.3339 35.9104C69.3339 35.8109 69.3339 35.7114 69.3339 35.612C69.3339 34.4846 71.8539 27.6208 74.4402 27.6208C74.7055 27.6208 74.805 27.7203 74.805 27.9192C74.805 28.1182 74.6392 28.3835 74.606 28.4166C70.5607 33.954 70.2291 35.5788 70.2291 35.5788C70.1628 35.7446 70.1628 35.8441 70.1628 35.9435C70.1628 36.3083 70.4281 36.3414 70.5607 36.3414C70.9255 36.3414 74.1087 34.4183 74.7055 34.1198C76.065 31.3014 77.6897 27.6208 79.6461 27.6208C79.845 27.6208 79.9113 27.7866 79.9113 27.9192C79.9113 28.1182 79.8119 28.3835 79.7456 28.4166C77.4576 31.5003 75.7666 35.5788 73.3792 38.563C75.3023 39.0604 77.2255 39.6241 79.0824 39.6241C79.7787 39.6241 80.5413 39.4583 81.2045 39.3257C82.0003 39.0604 82.2656 37.7009 83.4261 37.7009C83.5919 37.7009 83.6914 37.7341 83.7909 37.8667C83.824 37.933 83.824 38.0325 83.824 38.0657ZM71.8539 38.8283C70.7928 38.6294 69.7318 38.4636 68.6707 38.4636C66.847 38.4636 64.2275 38.9278 64.2275 40.7183C64.2275 41.7794 65.6533 42.2768 66.5154 42.2768C67.3775 42.2768 68.2396 41.9783 69.0354 41.481C70.1628 40.7515 71.0581 39.7899 71.8539 38.8283Z" fill="black"/>
<path d="M10.7101 10.1464C12.7991 7.36113 18.237 0.132633 18.237 0.165791H21.6855L12.5007 10.7433C12.9317 10.677 13.3296 10.677 13.6944 10.677C16.8775 10.677 17.7728 12.2022 17.7728 14.1917C17.7728 16.9107 16.1481 20.4586 16.1481 22.5476C16.1481 23.5424 16.6454 24.4376 17.4412 24.736C16.0486 25.1339 14.9544 25.2997 14.1917 25.2997C12.0364 25.2997 11.6054 24.1724 11.6054 23.0781C11.6054 20.8897 13.3628 16.9107 13.3628 14.3907C13.3628 13.0643 12.8654 12.1691 11.3733 12.1691C11.0749 12.1691 10.7101 12.2022 10.2791 12.3017L7.6264 24.7029H2.91793L7.69271 2.32108C4.77479 3.51477 3.05056 6.0348 3.05056 9.51642C3.05056 11.2075 3.48162 11.4728 3.51477 11.7712C1.26001 11.7712 0 10.9422 0 8.58798C0 4.17794 6.06796 0 11.5722 0C12.0364 0 12.4675 0.0331582 12.8986 0.0663165L10.7101 10.1464Z" fill="black"/>
<path d="M26.7918 8.25641L26.4271 9.91432C27.6208 8.98589 28.9471 8.25641 30.3066 8.25641C31.7987 8.25641 32.694 9.11852 32.694 10.3785C32.694 11.5391 31.8319 12.9649 30.2071 12.9649C28.3503 12.9649 29.2787 10.7764 28.284 10.7764C27.2892 10.7764 26.7587 11.1412 25.9961 11.8375L23.2439 24.7692H18.5686L22.0502 8.28957H26.7918V8.25641Z" fill="black"/>
<path d="M43.8684 12.7659C44.0673 12.9649 44.3657 13.0643 44.8299 13.0643C46.3884 13.0643 47.0847 11.937 48.2784 11.4396L48.411 12.1359C47.3831 13.4291 45.6589 14.5233 43.7689 15.0207C43.1389 21.6523 39.5578 24.9018 36.242 24.9018C32.7272 24.9018 31.2019 23.4097 31.2019 19.497C31.2019 11.3733 35.3135 7.89166 39.8894 7.89166C43.0062 7.92482 43.802 10.3454 43.8684 12.7659ZM41.3152 15.3523C40.3536 15.3523 39.9225 14.6559 39.9225 13.8601C39.9225 12.8986 40.4862 11.8706 41.3815 11.5391C41.282 10.4448 40.9173 9.81484 39.9888 9.81484C36.9051 9.81484 35.5788 16.546 35.5788 19.1655C35.5788 21.155 36.5072 21.6855 37.8004 21.6855C39.7899 21.7186 40.9173 18.5686 41.3152 15.3523ZM41.3815 0H44.8299L40.851 6.23375H38.3641L41.3815 0Z" fill="black"/>
<path d="M50.2679 19.4639C50.1684 19.8618 50.1021 20.2265 50.1021 20.5913C50.1021 21.2876 50.3674 21.8181 51.2958 21.8181C51.5279 21.8181 51.8926 21.8181 52.1579 21.7186C51.2295 24.5702 49.8368 24.7692 48.7426 24.7692C46.3884 24.7692 45.3936 23.2108 45.3936 21.1549C45.3936 20.6244 45.4599 20.0607 45.5926 19.497L49.2068 2.32106L54.0811 1.6579L50.2679 19.4639Z" fill="black"/>
<path d="M69.997 3.64741L67.6428 14.6559C70.9255 14.3907 73.4123 10.0469 73.4123 6.53217C73.4123 4.07846 72.2186 2.05581 69.3339 2.05581C63.9954 2.05581 60.779 5.07321 60.779 10.0801C60.779 11.7712 61.2101 12.0364 61.2433 12.3349C58.9553 12.3349 57.7285 11.5059 57.7285 9.15167C57.7285 4.77479 63.7964 0.56369 69.3007 0.56369C74.7055 0.56369 77.0929 3.64741 77.0929 7.06271C77.0929 11.2406 73.5118 15.916 67.5765 15.916H67.4107L65.388 25.2997H60.6464L65.1228 4.31057L69.997 3.64741Z" fill="black"/>
<path d="M83.2935 8.78696L80.9061 20.0276C80.8398 20.3923 80.7735 20.7571 80.7735 21.0555C80.7735 21.785 81.1051 22.3155 82.4314 22.3155C83.7577 22.3155 85.4819 20.4587 86.7751 19.3976H87.9025C86.3772 20.9229 82.6635 25.2998 80.0772 25.2998C77.524 25.2998 75.9655 24.1724 75.9655 21.7187C75.9655 21.2213 76.0318 20.6576 76.1645 20.0276L78.5519 8.82012H83.2935V8.78696ZM81.7682 1.82373C83.2272 1.82373 84.4209 3.01743 84.4209 4.47639C84.4209 5.93535 83.2272 7.09589 81.7682 7.09589C80.3093 7.09589 79.1487 5.93535 79.1487 4.47639C79.1819 2.98427 80.3093 1.82373 81.7682 1.82373Z" fill="black"/>
<path d="M101 8.78692L94.4347 13.2633C94.6999 13.2301 94.932 13.197 95.1973 13.197C97.021 13.197 99.0105 15.1865 99.0105 17.3417C99.0105 17.5739 98.9773 17.8391 98.911 18.1044L98.48 20.0276C98.3805 20.4918 98.2147 20.9892 98.2147 21.4202C98.2147 21.9839 98.48 22.3818 99.4747 22.3818C99.7068 22.3818 100.072 22.3818 100.337 22.2823C99.4084 25.1339 98.0158 25.3329 96.9215 25.3329C94.5673 25.3329 93.5726 23.7744 93.5726 21.7186C93.5726 21.1881 93.6389 20.6244 93.7715 20.0607L94.1031 18.5023C94.1362 18.2702 94.1694 18.0049 94.1694 17.7396C94.1694 16.6786 93.7052 15.6838 92.6773 15.6838C91.8815 15.6838 91.2846 15.9159 90.6215 16.3802L88.6983 25.2997H83.9567L88.7315 2.88475L93.6057 2.22159L91.1852 13.7275C93.6389 11.7712 97.4521 8.78692 97.4521 8.82008H101V8.78692Z" fill="black"/>
</svg>
