<svg width="336" height="100" viewBox="0 0 336 100" fill="none" xmlns="http://www.w3.org/2000/svg">
<path d="M52.7361 29.6296C52.8222 29.6296 52.9083 29.5435 53.0806 29.5435C52.6499 29.1128 52.2193 28.596 51.7886 28.1654C51.2718 27.6486 50.8412 27.1318 50.3244 26.615C50.3244 26.7011 50.3244 26.7873 50.3244 26.9595C50.2382 28.4238 51.358 29.5435 52.7361 29.6296Z" fill="black"/>
<path d="M48.4295 67.1835C48.1711 67.3557 47.9989 67.4419 47.7405 67.6141C46.6208 68.1309 44.8981 67.9587 43.52 67.528C43.3477 67.4419 43.0893 67.3557 42.917 67.3557C42.228 67.0973 42.3141 65.0301 42.0557 63.4798C40.6776 63.4798 38.9549 63.4798 37.8352 63.4798C37.5768 65.0301 37.663 67.0112 36.9739 67.3557C36.8878 67.4419 36.7155 67.4419 36.5432 67.528C35.2512 68.0448 33.6147 68.3032 32.3227 67.7864C31.6337 67.528 31.0307 67.0973 30.5139 66.6667C29.6526 65.9776 28.7913 65.2024 27.93 64.5134C27.327 64.0827 26.8102 63.5659 26.2934 63.0491C26.035 63.2214 25.7766 63.3075 25.5182 63.4798C26.035 64.944 26.1212 66.6667 27.0686 67.7003L27.1548 67.7864C30.4278 71.1456 33.9592 74.3325 37.663 77.261C38.6965 78.0362 41.2805 78.0362 42.3141 77.261C45.7594 74.5909 49.0325 71.5762 52.1332 68.4755C52.3055 68.3032 52.5639 68.0448 52.7362 67.8725C53.6836 66.8389 53.7698 64.944 54.2004 63.3936C51.7887 64.5134 50.2383 66.1499 48.4295 67.1835Z" fill="black"/>
<path d="M58.7654 56.3307C57.1289 56.6753 56.0092 56.9337 54.8033 57.2782C51.5303 58.0534 48.2573 57.795 45.4149 55.9001C43.52 54.6081 42.228 54.9526 40.8499 56.2446C43.6061 60.379 53.5113 60.5512 58.7654 56.3307Z" fill="black"/>
<path d="M40.1608 56.2446C38.6965 54.9526 37.4907 54.6081 35.5957 55.9001C32.8395 57.795 29.5665 58.0534 26.2073 57.2782C25.0876 57.0198 23.8817 56.7614 22.2452 56.3307C27.4131 60.5512 37.4045 60.379 40.1608 56.2446Z" fill="black"/>
<path d="M61.7801 38.932C61.6078 38.6736 61.0049 38.5013 60.0574 38.4152C56.1815 37.8122 46.793 37.9845 39.9885 38.1568C31.5475 37.8984 18.9722 37.7261 18.1108 38.932C17.4218 39.9655 17.8524 41.1714 17.9386 42.0327C17.9386 43.0663 18.3692 44.9612 18.6276 46.8562C19.0583 50.3015 21.2977 52.3686 24.743 52.627C29.9971 52.9716 35.2512 52.0241 36.1987 46.081C36.5432 43.7554 38.2659 41.7743 39.9024 41.6021C41.4528 41.7743 43.1754 43.7554 43.6061 46.081C44.5536 52.0241 49.8077 52.9716 55.0617 52.627C58.5932 52.3686 60.8326 50.3015 61.1772 46.8562C61.4356 44.9612 61.8662 43.0663 61.8662 42.0327C61.9524 41.6882 61.9524 41.3437 62.0385 40.913C62.2108 40.2239 62.1246 39.5349 61.7801 38.932ZM34.9067 47.1146C33.9592 49.6985 31.3753 50.9905 28.7913 51.3351C22.5036 52.2825 19.489 48.7511 19.6612 42.7218C19.7474 40.4823 28.1884 40.2239 33.184 40.9991C35.5958 41.3437 35.5096 45.5642 34.9067 47.1146ZM51.0135 51.3351C48.4295 50.9905 45.8455 49.6985 44.8981 47.1146C44.2952 45.5642 44.209 41.3437 46.6207 40.9991C51.6164 40.2239 60.0574 40.4823 60.1436 42.7218C60.3158 48.7511 57.3873 52.2825 51.0135 51.3351Z" fill="black"/>
<path d="M77.2839 45.0474C75.3029 39.5349 71.9437 34.7114 68.0677 30.4048C67.6371 31.18 66.6896 33.5056 66.2589 34.0224C65.7421 34.7114 64.967 35.056 64.1918 35.056H58.4209C58.8515 35.4866 59.2822 35.9173 59.6267 36.348C60.1435 36.8648 60.4881 37.2954 60.9187 37.8122C61.8662 37.9845 62.5552 38.1567 62.7275 38.4151C63.1582 39.0181 63.1582 39.7933 63.072 40.4823C65.1392 43.2386 66.6035 45.8226 67.5509 48.4927C68.8429 52.1102 69.2736 54.7803 68.8429 57.2782C68.3261 60.8958 67.7232 63.5659 66.3451 65.6331C64.6224 68.3032 62.2968 69.7674 58.5931 70.5426C58.0763 70.6288 57.5595 70.7149 57.0428 70.7149C56.2676 70.7149 55.4062 70.5426 54.1142 69.6813C53.942 69.8536 53.6836 70.0258 53.6836 70.0258C50.1521 73.6434 46.8791 76.5719 43.6061 79.0698C42.3141 80.0172 40.5914 80.1895 39.644 80.1895C38.6965 80.1895 37.06 80.0172 35.768 79.0698C32.3227 76.3996 28.7912 73.2989 25.0014 69.4229C24.9153 69.3368 24.743 69.1645 24.6569 69.0784C24.5707 68.9922 24.4846 68.82 24.3985 68.7338C22.762 69.509 21.5561 69.9397 20.4364 70.112C20.0918 70.1981 19.7473 70.1981 19.4028 70.1981C18.2831 70.1981 17.3356 69.9397 16.4743 69.3368C12.3399 66.5805 10.3589 62.8768 10.1005 57.1059C9.92819 52.7132 10.5311 49.1817 12.0815 46.1671C13.8903 42.6356 15.7852 39.8794 17.9385 37.7261C18.886 36.8648 19.7473 35.9173 20.6948 35.056H16.8188C16.0436 35.056 15.2684 34.7114 14.8378 34.1085C14.321 33.5056 13.1151 29.5435 12.6844 28.4238C11.9954 29.1128 11.3063 29.7157 10.7034 30.4048C7.68874 33.764 5.1909 37.5538 3.12371 41.6021C0.625867 46.6839 -0.149327 52.0241 0.0229386 57.6227C0.367469 66.236 3.72664 73.2127 11.0479 78.0362C13.6319 79.7588 16.5604 80.6201 19.6612 80.6201C20.5225 80.6201 21.3838 80.534 22.2452 80.4479C25.0875 80.0172 27.6715 78.8975 30.2555 77.6055C30.7723 77.3471 31.3752 76.7442 31.9781 76.7442C32.3227 76.7442 32.7533 77.0026 33.0117 77.6916C33.4424 79.4143 32.2365 81.5676 31.4614 83.4625C29.0496 89.1473 25.5182 94.0568 20.9532 98.1912C20.6086 98.5357 19.8334 98.9664 20.0057 99.5693C20.178 99.9139 20.5225 100 20.7809 100C20.9532 100 21.1254 100 21.2116 100C32.6672 100 44.209 100 55.6646 99.9139C55.923 99.9139 56.3537 99.8277 56.526 99.4832C56.6982 99.0525 56.4398 98.7941 56.3537 98.708C52.5639 95.7795 50.4105 91.559 48.1711 87.5108C46.793 85.0129 46.1039 82.2567 45.2426 79.5004C45.0703 78.8975 45.2426 77.7778 45.8455 77.5194C46.1039 77.3471 46.3623 77.261 46.6207 77.261C47.0514 77.261 47.482 77.5194 47.8266 77.8639C50.6689 80.0172 53.7697 81.0508 57.0428 81.0508C58.2486 81.0508 59.4545 80.8785 60.7465 80.6201C66.7757 79.3282 71.5992 76.4858 75.0445 71.2317C77.5423 67.3557 78.4036 63.1352 79.0927 58.6563C79.7818 53.919 78.8343 49.4401 77.2839 45.0474Z" fill="black"/>
<path d="M35.2512 5.16796C32.9257 8.26873 30.3417 11.1111 27.6716 13.8674L27.93 14.298L29.1358 13.9535C31.3753 13.3506 33.5286 12.6615 35.6819 11.9724C35.768 11.9724 36.0264 11.714 36.2848 11.2834C36.6294 10.6804 36.8878 9.99139 37.1462 9.38846V9.30232" fill="black"/>
<path d="M44.8119 8.26872C44.6397 8.61325 44.3813 8.95778 44.0367 9.38844C44.209 9.99137 44.4674 10.5082 44.7258 10.9388C45.1565 11.5418 45.7594 12.0586 46.1901 12.2308C47.9988 12.8337 49.8076 13.4367 51.7887 14.0396L52.4777 14.298C51.9609 13.7812 51.4442 13.2644 50.9274 12.6615C49.1186 10.6804 47.3959 8.61325 45.7594 6.45993C45.6733 7.06286 45.3287 7.66579 44.8119 8.26872Z" fill="black"/>
<path d="M71.5992 11.4556C71.6853 10.5082 71.4269 9.47459 70.824 8.87166C70.1349 8.09647 69.3597 7.66581 68.4122 7.57967C68.0677 7.49354 67.7232 7.40741 67.2925 7.40741C64.9669 7.40741 63.072 9.30233 63.072 11.6279C63.072 12.6615 63.5027 13.609 64.1056 14.3842C64.1917 14.6426 64.2779 14.9871 64.364 15.2455C64.1917 15.4177 64.0195 15.6761 63.9333 15.9345C63.3304 16.7959 62.6414 17.7433 61.78 18.6047C61.3494 19.0353 60.8326 19.2937 60.2296 19.2937C59.9713 19.2937 59.2822 19.2076 59.1099 18.4324C58.8515 17.0543 58.8515 15.6761 58.8515 14.1258C58.8515 13.609 58.8515 13.006 58.8515 12.4892C61.091 12.2308 62.8136 10.4221 62.8136 8.09647C62.8136 7.14901 62.5552 6.28768 62.0384 5.59862C62.0384 5.59862 62.0384 5.59862 62.0384 5.51249C61.4355 4.56503 60.488 3.9621 59.4545 3.78984C59.1099 3.7037 58.7654 3.7037 58.4209 3.7037C56.9566 3.7037 55.7508 4.39277 54.8894 5.42636C54.8894 5.51249 54.8033 5.51249 54.8033 5.59862L54.7172 5.68475C54.3726 6.20155 54.0281 6.71835 53.942 7.23514C53.7697 8.01034 53.8558 8.78553 54.2004 9.47459C54.4588 10.1637 54.8033 10.8527 55.4062 11.3695C55.5785 11.8863 55.4062 12.317 55.0617 13.006C54.631 13.7812 54.2004 14.4703 53.7697 15.0732L53.5974 15.3316L51.6164 14.6426C49.6353 14.0396 47.7404 13.5228 45.9316 12.8338C45.3287 12.5754 44.6396 12.0586 44.0367 11.2834C43.6922 10.8527 43.4338 10.2498 43.2615 9.56072C43.1754 9.38846 43.1754 9.30233 43.0893 9.13006C43.606 8.61327 43.9506 8.1826 44.209 7.75194C44.898 6.89061 45.4148 5.85702 45.4148 4.65116C45.4148 2.06718 43.3476 0 40.7637 0C38.352 0 36.3709 1.80879 36.1125 4.2205C35.6818 5.77089 36.5432 7.32128 38.0936 9.21619L37.9213 9.64686C37.6629 10.3359 37.4045 11.025 36.9738 11.714C36.7154 12.2308 36.2848 12.6615 35.9402 12.7476C33.7869 13.4367 31.6336 14.0396 29.308 14.7287L27.5854 15.2455L25.6043 11.6279C26.5518 10.9388 27.2408 9.81912 27.327 8.52713C27.4131 8.1826 27.4131 7.83807 27.327 7.49354C27.2408 7.14901 27.1547 6.80448 26.9824 6.45995C26.9824 6.45995 26.9824 6.37382 26.8963 6.37382C26.8102 6.28768 26.8102 6.11542 26.7241 6.02929C25.9489 4.65116 24.5707 3.7037 22.8481 3.7037C22.5036 3.7037 22.159 3.7037 21.9006 3.78984C20.867 3.9621 19.9196 4.56503 19.2305 5.51249C19.0582 5.77089 18.886 6.02929 18.7998 6.37382C18.7137 6.54608 18.7137 6.71835 18.6276 6.80448C18.5414 7.23514 18.3692 7.66581 18.3692 8.09647C18.3692 10.3359 20.0057 12.1447 22.159 12.4892C22.159 12.5754 22.2452 12.5754 22.2452 12.6615C22.3313 14.3842 22.4174 16.1929 22.159 17.8295C22.159 18.0017 22.0729 18.174 21.9868 18.3463C21.8145 18.6908 21.5561 19.2076 20.7809 19.3798C20.3502 19.3798 19.8334 19.1214 19.4028 18.6908C18.5414 17.8295 17.8524 16.882 16.9911 15.8484C16.7327 15.59 16.5604 15.2455 16.302 14.9009C16.4743 14.7287 16.7327 14.4703 16.8188 14.2119C17.5079 13.0922 17.6801 11.9724 17.4217 10.8527C17.3356 10.5082 17.1633 10.1637 16.9911 9.90526C16.302 8.26873 14.7516 7.14901 12.8567 7.14901C10.445 7.14901 8.46393 9.13006 8.46393 11.5418C8.46393 13.9535 10.445 15.9345 12.8567 15.9345C13.029 15.9345 13.1151 15.9345 13.2874 15.8484C13.6319 16.3652 13.718 17.0543 13.8903 17.9156C13.9764 18.3463 14.0625 18.8631 14.1487 19.2937C14.4071 20.3273 14.5793 21.3609 14.4071 22.1361C13.9764 23.8587 13.718 25.1507 13.8903 26.3566C13.9764 27.2179 14.4932 28.596 15.01 30.0603C15.3545 31.0078 15.6991 31.9552 15.8713 32.5581C15.9575 32.9027 16.302 33.1611 16.6465 33.1611H63.7611C64.1056 33.1611 64.364 32.9888 64.4501 32.6443C64.9669 31.2662 65.3976 30.4048 65.7421 29.7158C66.0005 29.199 66.2589 28.7683 66.3451 28.4238C66.4312 28.0792 66.6035 27.8208 66.6896 27.5624C67.2925 26.0982 67.7232 24.8923 66.7757 22.8252C66.1728 21.6193 66.0867 21.2748 66.2589 20.5857C66.3451 19.9828 66.4312 19.466 66.5173 18.8631C66.6896 17.6572 66.8619 16.6236 67.3787 15.7623C69.532 15.59 71.2546 13.7812 71.2546 11.5418C71.5992 11.5418 71.5992 11.4556 71.5992 11.4556ZM19.9196 28.1654C19.2305 28.1654 18.6276 27.7347 18.3692 26.8734C18.283 26.7873 18.2831 26.615 18.2831 26.5289C18.2831 26.4427 18.3692 26.3566 18.4553 26.2705C18.6276 25.5814 19.2305 25.0646 19.9196 25.0646C20.7809 25.0646 21.47 25.7537 21.47 26.615C21.47 27.4763 20.7809 28.1654 19.9196 28.1654ZM30.4278 26.7873C30.5139 27.6486 30.0832 28.4238 29.2219 28.8544C28.7051 29.199 28.2744 29.3712 27.7576 29.3712C26.2934 29.3712 25.0875 28.1654 25.0875 26.7011C25.0875 25.2369 26.2934 24.031 27.7576 24.031C29.2219 24.031 30.4278 25.2369 30.4278 26.5289C30.4278 26.5289 30.4278 26.615 30.4278 26.7873ZM40.5914 29.2851C39.1271 29.2851 37.9213 28.0792 37.9213 26.615C37.9213 25.1507 39.1271 23.9449 40.5914 23.9449C42.0557 23.9449 43.2615 25.1507 43.2615 26.615C43.2615 28.0792 42.0557 29.2851 40.5914 29.2851ZM52.9084 28.9406C52.65 28.9406 52.3916 28.8544 51.9609 28.6822C51.5303 28.5099 51.1857 28.0792 51.0135 27.6486L50.9273 27.3041C50.9273 27.1318 50.8412 27.0457 50.8412 26.8734C50.8412 26.7873 50.8412 26.7011 50.7551 26.7011C50.7551 25.4091 51.7025 24.3755 52.8222 24.3755C53.942 24.3755 54.8894 25.4091 54.8894 26.7011C54.9756 27.907 54.0281 28.9406 52.9084 28.9406ZM61.4355 28.1654C60.5742 28.1654 59.8851 27.4763 59.8851 26.615C59.8851 25.7537 60.5742 25.0646 61.4355 25.0646C62.2968 25.0646 62.9859 25.7537 62.9859 26.615C63.072 27.4763 62.2968 28.1654 61.4355 28.1654Z" fill="black"/>
<path d="M256.755 36.9879C257.608 36.9879 258.299 36.2965 258.299 35.4436C258.299 34.5906 257.608 33.8992 256.755 33.8992C255.902 33.8992 255.21 34.5906 255.21 35.4436C255.21 36.2965 255.902 36.9879 256.755 36.9879Z" fill="black"/>
<path d="M181.775 66.3312C175.752 69.6516 170.733 75.5975 167.181 81.6206C165.405 84.5549 165.173 85.9448 164.324 85.9448C163.937 85.9448 163.706 85.3271 163.706 84.4005C163.706 83.7055 163.706 82.6244 164.324 81.4661C168.493 72.6632 172.586 63.6285 176.447 64.3235C176.833 64.4007 177.065 64.5552 177.065 64.9413C177.065 66.3312 174.208 69.42 172.972 71.4277C175.211 69.1111 179.999 64.4007 183.088 64.4007C184.478 64.4007 185.559 65.4818 185.559 67.7984C185.559 73.2037 182.47 74.5164 181.929 74.5164C180.848 74.5164 181.08 72.972 181.312 72.4315C181.698 71.5821 183.319 69.1111 183.628 66.6401C183.628 65.6362 182.316 66.0223 181.775 66.3312Z" fill="black"/>
<path d="M197.759 76.6786C197.064 76.6786 196.833 77.2963 196.369 77.9913C196.138 78.3774 190.501 86.3309 184.4 86.3309C183.474 86.3309 181.775 86.0993 181.698 83.3966C181.312 74.6709 191.582 63.6285 197.682 63.6285C200.771 63.6285 200.848 66.5629 200.848 67.6439C200.848 69.0339 200.462 71.6593 198.377 75.057C201.929 74.8253 204.709 72.7404 206.022 69.9605C206.176 69.5744 206.485 69.3427 206.717 69.3427C207.643 69.3427 207.566 70.501 207.566 70.6555C205.867 74.1303 202.084 76.6786 197.759 76.6786ZM195.52 76.3697C192.586 75.6747 190.346 73.4354 190.346 70.3466C190.346 69.9605 190.346 69.4972 190.501 69.1883C187.644 72.2771 184.478 77.6824 184.478 82.6244C184.478 84.4777 185.327 84.4005 185.404 84.4005C189.188 84.246 193.976 78.3002 195.52 76.3697ZM198.223 68.9567C198.223 66.6401 196.833 66.0995 195.983 66.0995C192.817 66.0995 191.891 69.42 191.891 70.3466C191.891 72.3543 193.512 74.1303 196.369 74.9025C197.837 71.891 198.223 69.9605 198.223 68.9567Z" fill="black"/>
<path d="M226.948 74.362C224.323 78.4546 219.998 86.4854 213.744 86.4854C212.431 86.4854 211.504 85.7904 211.504 84.0144C211.504 80.4623 214.593 74.8253 215.751 72.7404C212.431 76.3697 205.172 86.4854 201.543 86.4854C201.389 86.4854 199.69 86.717 199.69 84.4777C199.69 80.2306 206.64 64.4007 212.354 64.4007C212.817 64.4007 212.972 64.6324 212.972 65.0185C212.972 65.6362 212.585 66.1768 212.585 66.3312C206.253 74.6709 201.08 82.9333 201.157 85.2499C201.62 85.0954 202.084 84.8638 202.701 84.4005C209.033 78.9951 213.898 71.5821 220.539 65.7134C221.466 64.7868 223.164 64.4007 223.937 64.4007C224.4 64.4007 224.554 64.7868 224.554 65.0957C224.554 65.559 224.323 66.1768 224.168 66.254C221.852 69.42 213.203 80.4623 213.203 84.6321C213.203 84.8638 213.203 85.0182 213.358 85.0954C217.914 85.7132 222.161 79.2268 225.327 73.8987C224.632 73.2809 224.4 72.5087 224.4 71.5821C224.4 67.1034 230.5 64.6324 233.821 64.6324C234.438 64.6324 234.902 64.7868 234.902 64.864C234.438 64.864 229.883 69.5744 227.72 72.972C233.357 72.972 237.836 67.1034 239.458 67.1034C239.612 67.1034 239.612 67.2578 239.612 67.335C239.612 67.7984 238.763 68.8794 237.836 69.6516C234.67 72.1226 231.35 74.362 226.948 74.362ZM225.867 71.6593C225.867 72.0454 226.022 72.2771 226.253 72.5087C227.566 70.501 228.879 68.4933 230.346 66.7173C228.184 67.4895 225.867 69.9605 225.867 71.6593Z" fill="black"/>
<path d="M247.72 75.3658C248.106 75.5975 247.102 77.3735 246.33 78.4546C244.091 81.08 242.701 82.0839 239.844 83.7827C237.218 85.1727 230.423 88.7247 229.033 83.7827C227.643 78.4546 235.288 67.1806 240.307 64.864C242.083 63.9374 244.4 63.9374 245.249 66.1768C248.106 74.0531 237.991 78.0685 232.817 80.5395C232.354 80.6167 231.967 80.7712 231.504 80.9256C231.041 82.2383 230.886 83.3966 231.118 84.3232C231.813 85.8676 236.909 83.8599 239.149 82.47C242.315 80.4623 243.01 79.7673 245.172 77.6824C245.867 76.4469 247.257 75.1342 247.72 75.3658ZM232.354 78.9179C237.759 76.6785 245.326 72.8176 243.859 67.1806C243.473 66.4856 242.238 67.1806 241.002 68.1072C237.604 70.4238 234.284 74.8253 232.354 78.9179Z" fill="black"/>
<path d="M261.233 66.3312C255.21 69.6516 250.191 75.5975 246.639 81.6206C244.863 84.5549 244.631 85.9448 243.782 85.9448C243.396 85.9448 243.164 85.3271 243.164 84.4005C243.164 83.7055 243.164 82.6244 243.782 81.4661C247.875 72.6632 252.044 63.6285 255.905 64.3235C256.291 64.4007 256.523 64.5552 256.523 64.9413C256.523 66.3312 253.666 69.42 252.43 71.4277C254.67 69.1111 259.457 64.4007 262.546 64.4007C263.936 64.4007 265.017 65.4818 265.017 67.7984C265.017 73.2037 261.928 74.5164 261.388 74.5164C260.307 74.5164 260.538 72.972 260.77 72.4315C261.156 71.5821 262.778 69.1111 263.087 66.6401C263.164 65.6362 261.851 66.0223 261.233 66.3312Z" fill="black"/>
<path d="M295.21 88.6475C295.21 90.9641 289.573 93.744 283.318 93.744C278.839 93.744 274.129 92.1224 269.882 91.0413C265.326 96.6783 260.461 100.076 254.979 99.9987C252.353 99.9987 248.183 98.4543 248.183 95.0567C248.183 89.2653 255.442 88.2614 259.612 88.2614C262.546 88.2614 265.403 88.6475 268.338 89.188C270.809 86.0221 272.353 82.9333 272.894 81.775C266.562 85.7904 264.786 86.2537 264.091 86.2537C261.62 86.2537 261.465 83.6283 261.465 83.6283C261.465 83.3966 261.465 83.165 261.465 82.9333C261.465 80.3079 267.334 64.3235 273.357 64.3235C273.975 64.3235 274.206 64.5552 274.206 65.0185C274.206 65.4818 273.82 66.0995 273.743 66.1768C264.322 79.0723 263.55 82.8561 263.55 82.8561C263.396 83.2422 263.396 83.4738 263.396 83.7055C263.396 84.5549 264.013 84.6321 264.322 84.6321C265.172 84.6321 272.585 80.1534 273.975 79.4584C277.141 72.8948 280.924 64.3235 285.48 64.3235C285.944 64.3235 286.098 64.7096 286.098 65.0185C286.098 65.4818 285.866 66.0995 285.712 66.1768C280.384 73.3581 276.446 82.8561 270.886 89.8058C275.365 90.9641 279.843 92.2768 284.168 92.2768C285.789 92.2768 287.565 91.8907 289.11 91.5818C290.963 90.9641 291.581 87.7981 294.283 87.7981C294.669 87.7981 294.901 87.8753 295.133 88.1842C295.21 88.3386 295.21 88.5703 295.21 88.6475ZM267.334 90.4235C264.863 89.9602 262.392 89.5741 259.921 89.5741C255.674 89.5741 249.573 90.6552 249.573 94.825C249.573 97.2961 252.894 98.4543 254.901 98.4543C256.909 98.4543 258.917 97.7594 260.77 96.6011C263.396 94.9023 265.48 92.6629 267.334 90.4235Z" fill="black"/>
<path d="M124.942 23.629C129.807 17.1426 142.47 0.308876 142.47 0.386095H150.501L129.112 25.019C130.115 24.8645 131.042 24.8645 131.891 24.8645C139.305 24.8645 141.389 28.4166 141.389 33.0498C141.389 39.3817 137.606 47.6442 137.606 52.509C137.606 54.8255 138.764 56.9105 140.617 57.6054C137.374 58.5321 134.826 58.9182 133.05 58.9182C128.031 58.9182 127.027 56.2927 127.027 53.7445C127.027 48.648 131.119 39.3817 131.119 33.5131C131.119 30.4243 129.961 28.3394 126.486 28.3394C125.791 28.3394 124.942 28.4166 123.938 28.6483L117.76 57.5282H106.795L117.915 5.40534C111.12 8.18522 107.104 14.0539 107.104 22.1619C107.104 26.1 108.108 26.7178 108.185 27.4128C102.934 27.4128 100 25.4823 100 19.9997C100 9.7296 114.131 0 126.949 0C128.031 0 129.034 0.0772191 130.038 0.154438L124.942 23.629Z" fill="black"/>
<path d="M162.393 19.2276L161.544 23.0885C164.323 20.9264 167.412 19.2276 170.578 19.2276C174.053 19.2276 176.138 21.2353 176.138 24.1696C176.138 26.8722 174.13 30.1927 170.347 30.1927C166.022 30.1927 168.184 25.0962 165.868 25.0962C163.551 25.0962 162.316 25.9456 160.54 27.5672L154.131 57.6827H143.243L151.351 19.3048H162.393V19.2276Z" fill="black"/>
<path d="M202.161 29.7293C202.624 30.1927 203.319 30.4243 204.4 30.4243C208.03 30.4243 209.651 27.7989 212.431 26.6406L212.74 28.2622C210.346 31.2737 206.331 33.822 201.929 34.9802C200.462 50.4241 192.122 57.9915 184.4 57.9915C176.215 57.9915 172.663 54.5167 172.663 45.4048C172.663 26.4861 182.238 18.3781 192.895 18.3781C200.153 18.4554 202.006 24.0924 202.161 29.7293ZM196.215 35.7524C193.976 35.7524 192.972 34.1308 192.972 32.2776C192.972 30.0382 194.285 27.6444 196.369 26.8722C196.138 24.324 195.288 22.8569 193.126 22.8569C185.945 22.8569 182.856 38.5323 182.856 44.6326C182.856 49.2658 185.018 50.5013 188.03 50.5013C192.663 50.5785 195.288 43.2427 196.215 35.7524ZM196.369 0H204.4L195.134 14.5172H189.342L196.369 0Z" fill="black"/>
<path d="M217.064 45.3276C216.832 46.2542 216.678 47.1036 216.678 47.9531C216.678 49.5747 217.296 50.8102 219.458 50.8102C219.998 50.8102 220.848 50.8102 221.466 50.5785C219.303 57.2194 216.06 57.6827 213.512 57.6827C208.029 57.6827 205.713 54.0534 205.713 49.2658C205.713 48.0303 205.867 46.7176 206.176 45.4048L214.593 5.40534L225.944 3.86096L217.064 45.3276Z" fill="black"/>
<path d="M263.009 8.4941L257.527 34.1308C265.172 33.5131 270.963 23.3974 270.963 15.2122C270.963 9.49795 268.183 4.78759 261.465 4.78759C249.033 4.78759 241.543 11.8145 241.543 23.4746C241.543 27.4128 242.546 28.0305 242.624 28.7255C237.296 28.7255 234.438 26.795 234.438 21.3125C234.438 11.1196 248.57 1.31273 261.388 1.31273C273.975 1.31273 279.534 8.4941 279.534 16.4477C279.534 26.1773 271.195 37.0652 257.372 37.0652H256.986L252.276 58.9182H241.234L251.658 10.0385L263.009 8.4941Z" fill="black"/>
<path d="M293.974 20.4631L288.415 46.6403C288.26 47.4897 288.106 48.3392 288.106 49.0341C288.106 50.7329 288.878 51.9685 291.967 51.9685C295.055 51.9685 299.071 47.6442 302.082 45.1732H304.708C301.156 48.7252 292.507 58.9182 286.484 58.9182C280.538 58.9182 276.909 56.2927 276.909 50.5785C276.909 49.4202 277.063 48.1075 277.372 46.6403L282.932 20.5403H293.974V20.4631ZM290.422 4.24706C293.82 4.24706 296.6 7.02694 296.6 10.4246C296.6 13.8222 293.82 16.5249 290.422 16.5249C287.025 16.5249 284.322 13.8222 284.322 10.4246C284.399 6.94972 287.025 4.24706 290.422 4.24706Z" fill="black"/>
<path d="M335.209 20.4631L319.92 30.8876C320.538 30.8104 321.078 30.7332 321.696 30.7332C325.943 30.7332 330.576 35.3663 330.576 40.3856C330.576 40.9261 330.499 41.5439 330.345 42.1616L329.341 46.6403C329.109 47.7214 328.723 48.8797 328.723 49.8835C328.723 51.1962 329.341 52.1229 331.657 52.1229C332.198 52.1229 333.047 52.1229 333.665 51.8912C331.503 58.5321 328.26 58.9954 325.711 58.9954C320.229 58.9954 317.912 55.3661 317.912 50.5785C317.912 49.343 318.067 48.0303 318.376 46.7175L319.148 43.0882C319.225 42.5477 319.302 41.93 319.302 41.3122C319.302 38.8412 318.221 36.5246 315.827 36.5246C313.974 36.5246 312.584 37.0652 311.04 38.1462L306.561 58.9182H295.519L306.638 6.71806L317.989 5.17368L312.352 31.9687C318.067 27.4128 326.947 20.4631 326.947 20.5403H335.209V20.4631Z" fill="black"/>
</svg>
