<svg height="1065pt" viewBox="-46 -34 1065 1065.0019" width="1065pt" xmlns="http://www.w3.org/2000/svg"><path d="m911.785156 342.367188-210.933594-38.507813 21.128907 121.078125c57.660156 1.601562 124.507812 4.476562 182.652343 5.144531 8.277344-32.996093 7.152344-54.882812 7.152344-87.714843zm-272.242187-49.695313-169.851563-31.003906 45.632813 157.519531 147.019531 4.085938zm92.667969 190.875 19.527343 111.898437c55.640625-18.710937 101.800781-57.332031 130.03125-107.734374zm-37.726563 123.878906-21.914063-125.539062-140.199218-3.898438 41.96875 144.863281zm-288.890625-357.460937-170.296875-31.085938 72.324219 195.792969c17.09375 0 121.640625 2.128906 146.515625 2.816406zm538.136719 38.988281c14.898437 1.363281 26.566406 13.890625 26.566406 29.128906v53.695313c0 148.882812-109.148437 273.027344-257.085937 292.011718l-338.949219 43.578126c-25.464844 3.253906-39.050781 31.691406-25.292969 53.609374 7.042969 11.214844 17.996094 17.117188 31.339844 17.117188h553.027344c16.152343 0 29.253906 13.09375 29.253906 29.25s-13.101563 29.257812-29.253906 29.257812h-553.027344c-69.179688 0-115.851563-71.300781-86.113282-134.253906 8.980469-18.992187 23.277344-34.042968 41.429688-43.285156l-169.035156-457.546875-71.089844-65.101563c-33.667969 13.46875-72.296875-.625-89.617188-32.292968-19.042968-34.832032-6.148437-78.40625 28.609376-97.410156 34.832031-19.0625 78.40625-6.152344 97.417968 28.59375 9.714844 17.757812 11.765625 39.246093 4.289063 59.410156l63.871093 58.488281c247.882813 45.253906 495.769532 90.503906 743.660157 135.75zm-427.917969 341.410156-44.640625-154.074219-142.25-3.957031 64.199219 173.769531zm-53.535156 216.554688c-40.414063-10.820313-82.21875 13.285156-93.0625 53.761719-10.828125 40.40625 13.285156 82.222656 53.765625 93.070312 40.402343 10.816406 82.214843-13.289062 93.0625-53.769531 10.820312-40.402344-13.285157-82.214844-53.765625-93.0625zm-4.394532 64.652343c4.847657 8.359376 1.882813 19.179688-6.496093 24.019532-13.292969 7.6875-29.824219-4.5-25.714844-19.828125 4.0625-15.191407 24.417969-17.683594 32.210937-4.191407zm373.027344-64.652343c-40.398437-10.820313-82.222656 13.285156-93.066406 53.761719-10.820312 40.40625 13.28125 82.222656 53.765625 93.070312 40.398437 10.816406 82.214844-13.289062 93.058594-53.769531 10.828125-40.402344-13.277344-82.214844-53.757813-93.0625zm-4.394531 64.652343c4.84375 8.359376 1.882813 19.179688-6.492187 24.019532-13.296876 7.6875-29.832032-4.488282-25.722657-19.828125 4.070313-15.191407 24.425781-17.683594 32.214844-4.191407zm-745.800781-848.375c-5.726563-10.464843-21.414063-8.726562-24.742188 2.660157-3.410156 11.648437 8.902344 21.449219 19.449219 15.671875 6.585937-3.601563 8.839844-11.84375 5.292969-18.332032zm0 0" fill-rule="evenodd"/></svg>